# xmcd CD database file
#
# Track frame offsets:
#	150
#	28799
#	58164
#	83469
#	112513
#	151493
#	178522
#	205629
#	234283
#	264958
#
# Disc length: 3967 seconds
#
# Revision: 0
# Processed by: cddbd v1.5.1PL0 Copyright (c) Steve Scherf et al.
# Submitted via: CDex 1.51
#
DISCID=6b0f7d0a
DTITLE=Peter Bernstein - Stranger in Paradise
DYEAR=2003
DGENRE=Jazz
TTITLE0=Venus Blues
TTITLE1=Stranger in Paradise
TTITLE2=Luiza
TTITLE3=How little we know
TTITLE4=Bobblehead
TTITLE5=Just a thought
TTITLE6=This is always
TTITLE7=Soul Stirrin
TTITLE8=That sunday, that summer
TTITLE9=Autumn Nocturne
EXTD=YEAR: 2003
EXTT0=
EXTT1=
EXTT2=
EXTT3=
EXTT4=
EXTT5=
EXTT6=
EXTT7=
EXTT8=
EXTT9=
PLAYORDER=
